<svg width="16" height="16" fill="none" xmlns="http://www.w3.org/2000/svg"><g clip-path="url(#clip0_1_23)"><path d="M3.64 16V5.488H.372V16h3.27zM1.989 4.082c1.055 0 1.899-.879 1.899-1.934 0-1.02-.844-1.863-1.899-1.863A1.876 1.876 0 00.125 2.148c0 1.055.844 1.934 1.863 1.934zM15.84 16h.035v-5.766c0-2.812-.633-4.992-3.938-4.992-1.582 0-2.636.88-3.093 1.688h-.035V5.488h-3.13V16h3.27v-5.203c0-1.371.246-2.672 1.934-2.672 1.687 0 1.723 1.547 1.723 2.777V16h3.234z" fill="#141414"/></g><defs><clipPath id="clip0_1_23"><path fill="#fff" d="M0 0h16v16H0z"/></clipPath></defs></svg>